General
Complete name                    : T-Pain feat. Chris Brown - Best Love Song 1080p Anky.mp4
Format                           : MPEG-4
Format profile                   : Base Media / Version 2
Codec ID                         : mp42
File size                        : 156 MiB
Duration                         : 3mn 49s
Overall bit rate                 : 5 691 Kbps
Video
ID                               : 1
Format                           : AVC
Format/Info                      : Advanced Video Codec
Format profile                   : High@L4.0
Format settings, CABAC           : Yes
Format settings, ReFrames        : 1 frame
Codec ID                         : avc1
Codec ID/Info                    : Advanced Video Coding
Duration                         : 3mn 49s
Bit rate mode                    : Variable
Bit rate                         : 5 534 Kbps
Maximum bit rate                 : 9 159 Kbps
Width                            : 1 920 pixels
Height                           : 1 080 pixels
Display aspect ratio             : 16:9
Frame rate mode                  : Variable
Frame rate                       : 23.976 fps
Minimum frame rate               : 17.241 fps
Maximum frame rate               : 24.390 fps
Resolution                       : 24 bits
Colorimetry                      : 4:2:0
Scan type                        : Progressive
Bits/(Pixel*Frame)               : 0.111
Stream size                      : 151 MiB (97%)

Audio
ID                               : 2
Format                           : AAC
Format/Info                      : Advanced Audio Codec
Format version                   : Version 4
Format profile                   : LC
Format settings, SBR             : No
Codec ID                         : 40
Duration                         : 3mn 49s
Bit rate mode                    : Variable
Bit rate                         : 151 Kbps
Maximum bit rate                 : 193 Kbps
Channel(s)                       : 2 channels
Channel positions                : L R
Sampling rate                    : 44.1 KHz
Resolution                       : 16 bits
Stream size                      : 4.12 MiB (3%)



 
http://img.sceper.eu/images/vlcsnanrn.png 
http://img.sceper.eu/images/vlcsnagng.jpg